<svg width="42" height="42" viewBox="0 0 42 42" fill="none" xmlns="http://www.w3.org/2000/svg">
<path fill-rule="evenodd" clip-rule="evenodd" d="M21 7C19.067 7 17.5 8.567 17.5 10.5C17.5 12.433 19.067 14 21 14C22.933 14 24.5 12.433 24.5 10.5C24.5 8.567 22.933 7 21 7Z" fill="#AFAFAF"/>
<path fill-rule="evenodd" clip-rule="evenodd" d="M21 17.5C19.067 17.5 17.5 19.067 17.5 21C17.5 22.933 19.067 24.5 21 24.5C22.933 24.5 24.5 22.933 24.5 21C24.5 19.067 22.933 17.5 21 17.5Z" fill="#AFAFAF"/>
<path fill-rule="evenodd" clip-rule="evenodd" d="M21 28C19.067 28 17.5 29.567 17.5 31.5C17.5 33.433 19.067 35 21 35C22.933 35 24.5 33.433 24.5 31.5C24.5 29.567 22.933 28 21 28Z" fill="#AFAFAF"/>
</svg>
