<svg width="25" height="25" viewBox="0 0 25 25" fill="none" xmlns="http://www.w3.org/2000/svg">
<path d="M19.7293 17.9888L25 23.2596L23.2596 25L17.9888 19.7293C16.0937 21.2455 13.6903 22.1525 11.0763 22.1525C4.96217 22.1525 0 17.1904 0 11.0763C0 4.96217 4.96217 0 11.0763 0C17.1904 0 22.1525 4.96217 22.1525 11.0763C22.1525 13.6903 21.2455 16.0937 19.7293 17.9888ZM17.2602 17.0757C18.765 15.5247 19.6911 13.4092 19.6911 11.0763C19.6911 6.31655 15.836 2.46139 11.0763 2.46139C6.31655 2.46139 2.46139 6.31655 2.46139 11.0763C2.46139 15.836 6.31655 19.6911 11.0763 19.6911C13.4092 19.6911 15.5247 18.765 17.0757 17.2602L17.2602 17.0757Z" fill="black"/>
</svg>
