<svg width="22" height="21" viewBox="0 0 22 21" fill="none" xmlns="http://www.w3.org/2000/svg">
<path fill-rule="evenodd" clip-rule="evenodd" d="M10.4318 21.0089C12.0887 21.0089 13.4318 19.6657 13.4318 18.0089V11.5044H18.5687L16.5658 13.5073C16.1753 13.8979 16.1753 14.531 16.5658 14.9216C16.9563 15.3121 17.5895 15.3121 17.98 14.9216L21.69 11.2115C22.0805 10.821 22.0805 10.1879 21.69 9.79734L17.98 6.08733C17.5895 5.69681 16.9563 5.69681 16.5658 6.08733C16.1753 6.47786 16.1753 7.11102 16.5658 7.50155L18.5687 9.50444H13.4318V3C13.4318 1.34315 12.0887 0 10.4318 0H2.99994C1.34309 0 -5.53131e-05 1.34314 -5.53131e-05 3V18.0089C-5.53131e-05 19.6657 1.34309 21.0089 2.99995 21.0089H10.4318ZM11.4318 9.50444V3C11.4318 2.44772 10.9841 2 10.4318 2H2.99994C2.44766 2 1.99994 2.44771 1.99994 3V18.0089C1.99994 18.5612 2.44766 19.0089 2.99995 19.0089H10.4318C10.9841 19.0089 11.4318 18.5612 11.4318 18.0089V11.5044H6.71589C6.1636 11.5044 5.71589 11.0567 5.71589 10.5044C5.71589 9.95216 6.1636 9.50444 6.71589 9.50444H11.4318Z" fill="#31615F"/>
</svg>
